<svg id="Layer_1" data-name="Layer 1" xmlns="http://www.w3.org/2000/svg" viewBox="0 0 2000 800"><defs><style>.cls-1{opacity:0.18;}.cls-10,.cls-12,.cls-14,.cls-16,.cls-18,.cls-2,.cls-20,.cls-22,.cls-24,.cls-26,.cls-4,.cls-6,.cls-8{fill:none;stroke:#fff;stroke-linecap:round;stroke-miterlimit:10;stroke-width:2px;}.cls-2{stroke-dasharray:22.26 18.22;}.cls-3{opacity:0.2;}.cls-4{stroke-dasharray:21.67 17.73;}.cls-5{opacity:0.16;}.cls-6{stroke-dasharray:21.98 17.98;}.cls-7{opacity:0.14;}.cls-8{stroke-dasharray:21.84 17.87;}.cls-9{opacity:0.12;}.cls-10{stroke-dasharray:22.05 18.04;}.cls-11{opacity:0.1;}.cls-12{stroke-dasharray:21.94 17.95;}.cls-13{opacity:0.08;}.cls-14{stroke-dasharray:22.08 18.07;}.cls-15{opacity:0.06;}.cls-16{stroke-dasharray:22 18;}.cls-17{opacity:0.05;}.cls-18{stroke-dasharray:21.93 17.94;}.cls-19{opacity:0.04;}.cls-20{stroke-dasharray:22.02 18.02;}.cls-21{opacity:0.03;}.cls-22{stroke-dasharray:21.96 17.97;}.cls-23{opacity:0.02;}.cls-24{stroke-dasharray:22.03 18.03;}.cls-25{opacity:0.01;}.cls-26{stroke-dasharray:21.98 17.98;}</style></defs><title>background_hero</title><g class="cls-1"><circle class="cls-2" cx="1000" cy="760" r="193.27" transform="translate(-11.2 14.97) rotate(-0.85)"/></g><g class="cls-3"><circle class="cls-4" cx="1000" cy="760" r="100.32" transform="translate(-11.2 14.97) rotate(-0.85)"/></g><g class="cls-5"><circle class="cls-6" cx="1000" cy="760" r="286.22"/></g><g class="cls-7"><circle class="cls-8" cx="1000" cy="760" r="379.18" transform="translate(-11.2 14.97) rotate(-0.85)"/></g><g class="cls-9"><circle class="cls-10" cx="1000" cy="760" r="472.14" transform="translate(-11.2 14.97) rotate(-0.85)"/></g><g class="cls-11"><circle class="cls-12" cx="1000" cy="760" r="565.1" transform="translate(-11.2 14.97) rotate(-0.85)"/></g><g class="cls-13"><circle class="cls-14" cx="1000" cy="760" r="658.06" transform="translate(-11.2 14.97) rotate(-0.85)"/></g><g class="cls-15"><circle class="cls-16" cx="1000" cy="760" r="751.02" transform="translate(-11.2 14.97) rotate(-0.85)"/></g><g class="cls-17"><circle class="cls-18" cx="1000" cy="760" r="843.98" transform="translate(-11.2 14.97) rotate(-0.85)"/></g><g class="cls-19"><circle class="cls-20" cx="1000" cy="760" r="936.58" transform="translate(-11.2 14.97) rotate(-0.85)"/></g><g class="cls-21"><circle class="cls-22" cx="1000" cy="760" r="1029.27" transform="translate(-11.2 14.97) rotate(-0.85)"/></g><g class="cls-23"><circle class="cls-24" cx="1000" cy="760" r="1121.97" transform="translate(-11.2 14.97) rotate(-0.85)"/></g><g class="cls-25"><circle class="cls-26" cx="1000" cy="760" r="1214.66" transform="translate(-11.2 14.97) rotate(-0.85)"/></g></svg>