<?xml version="1.0" encoding="utf-8"?>
<!-- Generator: Adobe Illustrator 22.0.0, SVG Export Plug-In . SVG Version: 6.00 Build 0)  -->
<svg version="1.1" id="Layer_1" xmlns="http://www.w3.org/2000/svg" xmlns:xlink="http://www.w3.org/1999/xlink" x="0px" y="0px"
	 viewBox="0 0 503.5 503.5" style="enable-background:new 0 0 503.5 503.5;" xml:space="preserve">
<style type="text/css">
	.st0{fill:#ECF4F7;}
	.st1{fill:#FFCA46;}
	.st2{fill:#AAB1BA;}
	.st3{fill:#54BAC5;}
	.st4{fill:#74DDE2;}
	.st5{fill:#FF7474;}
	.st6{fill:#293143;}
</style>
<path class="st0" d="M499.2,89.6v375.5c0,18.8-15.4,34.1-34.1,34.1H38.4c-18.8,0-34.1-15.4-34.1-34.1V89.6H499.2z"/>
<path class="st1" d="M89.6,499.2h85.3v-85.3H89.6V499.2z M328.5,499.2h85.3v-85.3h-85.3V499.2z M209.1,499.2h85.3v-85.3h-85.3
	L209.1,499.2L209.1,499.2z"/>
<path class="st2" d="M499.2,38.4v51.2H4.3V38.4c0-18.8,15.4-34.1,34.1-34.1h426.7C483.8,4.3,499.2,19.6,499.2,38.4L499.2,38.4z"/>
<polygon class="st3" points="413.9,328.5 174.9,328.5 243.2,260.3 277.3,294.4 328.5,243.2 "/>
<polygon class="st4" points="413.9,192 413.9,328.5 328.5,243.2 277.3,294.4 243.2,260.3 174.9,328.5 89.6,328.5 89.6,192 "/>
<path class="st1" d="M115.2,38.4c4.3,0,8.5,4.3,8.5,8.5s-4.3,8.5-8.5,8.5c-4.3,0-8.5-4.3-8.5-8.5S110.9,38.4,115.2,38.4"/>
<path class="st5" d="M64,38.4c4.3,0,8.5,4.3,8.5,8.5s-4.3,8.5-8.5,8.5s-8.5-4.3-8.5-8.5S59.7,38.4,64,38.4"/>
<path class="st4" d="M166.4,38.4c5.1,0,8.5,4.3,8.5,8.5s-3.4,8.5-8.5,8.5c-4.3,0-8.5-4.3-8.5-8.5S162.1,38.4,166.4,38.4"/>
<path class="st1" d="M157.9,226.1c9.4,0,17.1,7.7,17.1,17.1s-7.7,17.1-17.1,17.1s-17.1-7.7-17.1-17.1S148.5,226.1,157.9,226.1"/>
<path class="st6" d="M465.1,503.5H38.4C17.1,503.5,0,486.4,0,465.1V123.7c0-2.6,1.7-4.3,4.3-4.3s4.3,1.7,4.3,4.3v341.3
	c0,16.2,13.7,29.9,29.9,29.9h426.7c16.2,0,29.9-13.7,29.9-29.9V38.4c0-16.2-13.7-29.9-29.9-29.9H38.4C22.2,8.5,8.5,22.2,8.5,38.4
	v46.9h456.5c2.6,0,4.3,1.7,4.3,4.3s-1.7,4.3-4.3,4.3H4.3c-2.6,0-4.3-1.7-4.3-4.3V38.4C0,17.1,17.1,0,38.4,0h426.7
	c21.3,0,38.4,17.1,38.4,38.4v426.7C503.5,486.4,486.4,503.5,465.1,503.5z M413.9,469.3c-2.6,0-4.3-1.7-4.3-4.3v-46.9h-76.8v46.9
	c0,2.6-1.7,4.3-4.3,4.3s-4.3-1.7-4.3-4.3v-51.2c0-2.6,1.7-4.3,4.3-4.3h85.3c2.6,0,4.3,1.7,4.3,4.3v51.2
	C418.1,467.6,416.4,469.3,413.9,469.3z M294.4,469.3c-2.6,0-4.3-1.7-4.3-4.3v-46.9h-76.8v46.9c0,2.6-1.7,4.3-4.3,4.3
	s-4.3-1.7-4.3-4.3v-51.2c0-2.6,1.7-4.3,4.3-4.3h85.3c2.6,0,4.3,1.7,4.3,4.3v51.2C298.7,467.6,297,469.3,294.4,469.3z M174.9,469.3
	c-2.6,0-4.3-1.7-4.3-4.3v-46.9H93.9v46.9c0,2.6-1.7,4.3-4.3,4.3s-4.3-1.7-4.3-4.3v-51.2c0-2.6,1.7-4.3,4.3-4.3h85.3
	c2.6,0,4.3,1.7,4.3,4.3v51.2C179.2,467.6,177.5,469.3,174.9,469.3z M413.9,332.8H226.1c-2.6,0-4.3-1.7-4.3-4.3s1.7-4.3,4.3-4.3
	h183.5v-128H93.9v128h79.4l67.4-67.4c1.7-1.7,4.3-1.7,6,0l30.7,30.7l47.8-47.8c1.7-1.7,4.3-1.7,6,0l51.2,51.2c1.7,1.7,1.7,4.3,0,6
	c-1.7,1.7-4.3,1.7-6,0l-47.8-47.8L280.7,297c-1.7,1.7-4.3,1.7-6,0l-30.7-30.7l-64.9,64.9c-0.9,0.9-1.7,0.9-3.4,0.9H90.5
	c-2.6,0-4.3-1.7-4.3-4.3V191.1c0-2.6,1.7-4.3,4.3-4.3h324.3c2.6,0,4.3,1.7,4.3,4.3v136.5C418.1,331.1,416.4,332.8,413.9,332.8z
	 M157.9,264.5c-11.9,0-21.3-9.4-21.3-21.3s9.4-21.3,21.3-21.3c11.9,0,21.3,9.4,21.3,21.3S169.8,264.5,157.9,264.5z M157.9,230.4
	c-6.8,0-12.8,6-12.8,12.8s6,12.8,12.8,12.8s12.8-6,12.8-12.8S164.7,230.4,157.9,230.4z M448,145.1h-34.1c-2.6,0-4.3-1.7-4.3-4.3
	s1.7-4.3,4.3-4.3H448c2.6,0,4.3,1.7,4.3,4.3S450.6,145.1,448,145.1z M379.7,145.1h-34.1c-2.6,0-4.3-1.7-4.3-4.3s1.7-4.3,4.3-4.3
	h34.1c2.6,0,4.3,1.7,4.3,4.3S382.3,145.1,379.7,145.1z M311.5,145.1h-34.1c-2.6,0-4.3-1.7-4.3-4.3s1.7-4.3,4.3-4.3h34.1
	c2.6,0,4.3,1.7,4.3,4.3C315.7,143.4,314,145.1,311.5,145.1z M123.7,145.1H55.5c-2.6,0-4.3-1.7-4.3-4.3s1.7-4.3,4.3-4.3h68.3
	c2.6,0,4.3,1.7,4.3,4.3C128,143.4,126.3,145.1,123.7,145.1z M166.4,59.7c-6.8,0-12.8-6-12.8-12.8s6-12.8,12.8-12.8s12.8,6,12.8,12.8
	S173.2,59.7,166.4,59.7z M166.4,42.7c-2.6,0-4.3,1.7-4.3,4.3c0,2.6,1.7,4.3,4.3,4.3s4.3-1.7,4.3-4.3C170.7,44.4,169,42.7,166.4,42.7
	z M115.2,59.7c-6.8,0-12.8-6-12.8-12.8s6-12.8,12.8-12.8s12.8,6,12.8,12.8S122,59.7,115.2,59.7z M115.2,42.7c-2.6,0-4.3,1.7-4.3,4.3
	c0,2.6,1.7,4.3,4.3,4.3s4.3-1.7,4.3-4.3C119.5,44.4,117.8,42.7,115.2,42.7z M64,59.7c-6.8,0-12.8-6-12.8-12.8s6-12.8,12.8-12.8
	s12.8,6,12.8,12.8S70.8,59.7,64,59.7z M64,42.7c-2.6,0-4.3,1.7-4.3,4.3c0,2.6,1.7,4.3,4.3,4.3s4.3-1.7,4.3-4.3
	C68.3,44.4,66.6,42.7,64,42.7z"/>
</svg>
