<svg xmlns="http://www.w3.org/2000/svg" viewBox="0 0 249.1 352.29"><defs><style>.cls-1{fill:#4884c1;}.cls-2{fill:#fff;}.cls-3{fill:#bababa;}.cls-4{fill:#97daf2;}.cls-5{fill:#b3ba27;}.cls-6{fill:#c3d32a;}.cls-7{fill:#d8c58b;}.cls-8{fill:#e2d6b7;}.cls-9{fill:#ccbfa2;}.cls-10{fill:#b2a16f;}.cls-11{fill:#8c372f;}.cls-12{fill:#602724;}.cls-13{fill:#ceb87c;}.cls-14{fill:#c6af6f;}.cls-15{fill:#80746f;}.cls-16{fill:#af9658;}.cls-17{fill:#2c555b;}.cls-18{fill:#75a9ab;}.cls-19{fill:#9e8b5e;}.cls-20{fill:#6b615d;}.cls-21{fill:#af9c97;}.cls-22{fill:#c1aca4;}.cls-23{fill:#f8f2dc;}.cls-24{fill:#1d4144;}.cls-25{fill:#e8e1ca;}.cls-26{fill:#244447;}.cls-27{fill:#d1cab6;}.cls-28{fill:#527022;}.cls-29{fill:#659624;}.cls-30{fill:#81a549;}.cls-31{fill:#8abc3b;}.cls-32{fill:none;stroke:#d8c58b;stroke-miterlimit:10;opacity:0.51;}</style></defs><title>expose_designed</title><path class="cls-1" d="M5 0h239.1a5 5 0 0 1 5 5v33.16H0V5a5 5 0 0 1 5-5z"/><path class="cls-2" d="M0 133.92h249.1v213.37a5 5 0 0 1-5 5H5a5 5 0 0 1-5-5V133.92zM14.65 12.52h31.99v7.72H14.65zM14.65 23.36h103.72v3.69H14.65z"/><path class="cls-3" d="M14.65 151.78h23.23v6.56H14.65zM14.65 208.28h68.2v6.56h-68.2zM14.65 166.77h52.56v3.79H14.65zM14.65 172.77h39.13v3.79H14.65zM14.65 178.77h64.87v3.79H14.65zM14.65 184.77h62.84v3.79H14.65zM14.65 190.77h81.03v3.79H14.65zM124.65 166.77h62v3.79h-62zM124.65 172.77h69.97v3.79h-69.97zM124.65 178.77h49.99v3.79h-49.99zM124.65 184.77h42.88v3.79h-42.88zM124.65 190.77h45.25v3.79h-45.25zM14.65 223.77H221.9v3.79H14.65zM14.65 229.77h40.76v3.79H14.65z"/><path class="cls-4" d="M0 38.16h249.1v95.76H0z"/><path class="cls-2" d="M196.74 26.44h9.41V13.13h-9.41zm12-13.31v13.31h25.68V13.13z"/><path class="cls-3" d="M79.09 325.77h90.93v3.79H79.09z"/><path class="cls-5" d="M111.7 128.71a10.42 10.42 0 0 0-9.54-6.09 10.56 10.56 0 0 0-4.67 1.09 14.43 14.43 0 0 0-13.63-9.56 14.79 14.79 0 0 0-4 .55 19.16 19.16 0 0 0-34.25 2.55 13.16 13.16 0 0 0-7.36-2.25 13.6 13.6 0 0 0-13.49 13.71 14.13 14.13 0 0 0 .21 2.43 5.65 5.65 0 0 0 .77 2.77h86.84v-1.15a10.19 10.19 0 0 0-.87-4.06z"/><path class="cls-6" d="M45.23 133.88h72.24a16.19 16.19 0 0 0 1.15-5.81c0-4.33-2.9-7.84-6.48-7.84a5.43 5.43 0 0 0-1.43.19c-.63-5-5.28-8.94-10.93-8.94a11.59 11.59 0 0 0-6.81 2.17 8.63 8.63 0 0 0-10.18-2.3 9.39 9.39 0 0 0-14-1.7 8.63 8.63 0 0 0-2.18-.28 9 9 0 0 0-8.87 8.53 7.94 7.94 0 0 0-4.22 3.7 6 6 0 0 0-1.95-1.89 11.29 11.29 0 0 0-12 .15A12.6 12.6 0 0 0 34 130.68a13.41 13.41 0 0 0 .51 3.24z"/><path class="cls-7" d="M186.47 56.35l1.37.93-.65-1.92-.72.99zM190.59 51.71l.18 25.62 5.72 17.04-.1-42.3-5.8-.36z"/><path class="cls-8" d="M196.89 52.07h-6.41V49l6.41.12v2.95z"/><path class="cls-9" d="M190.48 49l-4.16 5.42.07 1.98 4.24-4.4-.15-3z"/><path class="cls-10" d="M187.19 55.36l.2 11.62 3.38 10.35-.14-25.33-3.44 3.36z"/><path class="cls-11" d="M111.54 65.5l75.87.5 9.58 29.24h-64.53L111.54 65.5z"/><path class="cls-12" d="M144.93 65.75l19.65 28.47-32.17.08-20.87-28.8 33.39.25z"/><path class="cls-7" d="M132.46 133.92H61.53V86.83l35.9-27.01 35.92 26.09-.89 48.01z"/><path class="cls-13" d="M61.53 86.45l.19 5.29 38.19-29.21-3.37-2.71-35.01 26.63z"/><path class="cls-14" d="M105.68 132.29c.19-.56-.57-46.45-.57-46.45l13.32-10.17 14.24 10.12.36 47.89-27.54-.46z"/><path class="cls-7" d="M197.06 133.92l-64.61-.18V97.61l64.66.33-.05 35.98z"/><path class="cls-15" d="M61.53 122.4h44.21v11.52H61.53z"/><path class="cls-16" d="M128.05 93.75c0-3-4.29-5.44-9.58-5.44s-9.58 2.44-9.58 5.44v29.27H128c0-5.13.05-29.13.05-29.27z"/><path class="cls-13" d="M132.52 97.89h64.58v4.92h-64.58zM132.18 98.1h21.83v35.75h-21.83z"/><path class="cls-17" d="M73.6 123.98h14.24v6.81H73.6z"/><path class="cls-18" d="M83.03 123.98h-1.57l-4.84 6.8h1.62l4.79-6.8zM79.17 130.78h2.96l5.27-6.8h-3.39l-4.84 6.8z"/><path class="cls-15" d="M173.83 122.72h23.23v11.2h-23.23z"/><path class="cls-10" d="M96.58 59.93L81.5 71.53h31.18l-16.1-11.6z"/><path class="cls-19" d="M87.81 71.53l12.13-9.17-3.36-2.43-15.5 11.7 6.73-.1zM97.54 63.83l14.59 10.81 2.33-1.87-14.52-10.41-2.4 1.47z"/><path class="cls-13" d="M107.86 71.53l4.51-.23 2.09 1.47-2.33 1.87-4.27-3.11z"/><path class="cls-17" d="M77.22 117.75l-8.57.06V93.64h8.46l.11 24.11z"/><path class="cls-10" d="M70.43 117.82h-1.9l.01-24.52h1.89v24.52zM68.54 93.29h8.57v1.83h-8.57z"/><path class="cls-7" d="M68.508 99.103l9.12-.018.002.8-9.12.018z"/><path class="cls-18" d="M70.39 109.42l6.75-9.51.01 1.78-6.71 9.54-.05-1.81zM70.42 112.61l6.73-9.44.08 3.99-6.82 8.81.01-3.36z"/><path class="cls-17" d="M87.37 117.68l-8.57.06V93.56h8.45l.12 24.12z"/><path class="cls-10" d="M80.57 117.75h-1.9l.01-24.53h1.89v24.53zM78.68 93.22h8.57v1.83h-8.57z"/><path class="cls-7" d="M78.658 99.023l9.12-.018.002.8-9.12.018z"/><path class="cls-18" d="M80.53 109.35l6.76-9.51v1.78l-6.7 9.54-.06-1.81zM80.56 112.54l6.74-9.44.08 3.99-6.83 8.81.01-3.36z"/><path class="cls-17" d="M97.3 117.68l-8.57.06V93.56h8.46l.11 24.12z"/><path class="cls-10" d="M90.51 117.75h-1.9l.01-24.53h1.89v24.53zM88.62 93.22h8.57v1.83h-8.57z"/><path class="cls-7" d="M88.588 99.023l9.12-.018.002.8-9.12.018z"/><path class="cls-18" d="M90.47 109.35l6.75-9.51v1.78l-6.7 9.54-.05-1.81zM90.5 112.54l6.73-9.44.08 3.99-6.83 8.81.02-3.36z"/><path class="cls-19" d="M97.34 91.42l8.71 8.91-.94-14.35-7.77 5.44z"/><path class="cls-20" d="M73.6 123.98h1.21v6.84H73.6z"/><path class="cls-21" d="M107.39 125.18h20.62v3.41h-20.62z"/><path class="cls-22" d="M109.57 121.83h18.44v3.41h-18.44zM109.47 128.47h18.6v3.41h-18.6z"/><path class="cls-21" d="M109.57 130.68h18.6v3.24h-18.6z"/><path class="cls-15" d="M130.7 121.88h13.05v12.04H130.7z"/><path class="cls-23" d="M132.41 94.22h64.96v3.72h-64.96z"/><path class="cls-20" d="M128.01 121.88h4.45v12.04h-4.45zM105.74 122.4h3.83v11.52h-3.83z"/><path class="cls-11" d="M112.61 95.11h11.72v26.85h-11.72z"/><path class="cls-17" d="M115.01 98.14h6.37v18.15h-6.37z"/><circle class="cls-16" cx="122.86" cy="111" r=".93"/><path class="cls-24" d="M115.01 98.14h1.48v18.07h-1.48zM121.54 98.12v1.48h-6.43v-1.48z"/><path class="cls-17" d="M140.65 105.52h33.27v28.4h-33.27z"/><path class="cls-25" d="M140.6 105.41h13.34V113H140.6z"/><path class="cls-26" d="M140.57 112.77h13.42v21.15h-13.42z"/><path class="cls-27" d="M140.65 105.41h13.21v2.17h-13.21z"/><path class="cls-25" d="M153.86 105.41h20.1v2.17h-20.1z"/><path class="cls-23" d="M153.91 107.57h20.03v5.2h-20.03z"/><path class="cls-25" d="M140.56 115.85h13.34v1.79h-13.34z"/><path class="cls-23" d="M153.87 115.86h20.03v1.8h-20.03z"/><path class="cls-12" d="M207.38 124.38s2.86 2.55 2.4 9.54h2.44s.13-7.21 1.53-8.92l-.58.08-.87 2.27a.33.33 0 0 1-.49.14s-.17 0-.16-.39v-1.63l-.56-.37v1.88s0 .76-.31.72c0 0-.33.12-.47-.37 0 0-1.44-3.37-1.94-3.07a9.78 9.78 0 0 1-1.07.19"/><path class="cls-28" d="M219.58 96.8c-.23-15.67-5.44-26.26-8.43-26.26H211c-3 0-8.21 10.59-8.43 26.26-.06 4.36-.75 14.39-.38 18 .85 8.3 6.42 10.79 8.77 11h.26c2.36-.22 7.92-2.72 8.77-11 .34-3.61-.35-13.64-.41-18z"/><path class="cls-29" d="M219.93 97c-.23-15.67-5.61-26.26-8.7-26.26H211c-3.09 0-8.47 10.59-8.7 26.26 0 3.33-.27 6.66-.39 10s-.59 6.51.82 9.45c.42.88 1 1.88 2 1.92 1.18 0 1.85-1.34 2.07-2.5.06-.3.33-.69.56-.49a.43.43 0 0 1 .11.19l.86 2.31a2.54 2.54 0 0 0 1.05 1.51c.94.46 2-.37 2.59-1.23a9 9 0 0 0 1.36-3.22 18.2 18.2 0 0 0 .94 2.41c.47 1 1.27 2.08 2.37 2a2 2 0 0 0 1.55-1.18c.3-.61 1.59-1.47 1.69-2a60.16 60.16 0 0 0 .4-9.27c-.09-3.4-.28-6.67-.35-9.9z"/><path class="cls-30" d="M219.9 96.8c-.24-15.67-5.67-26.26-8.8-26.26h-.2c-3.12 0-8.56 10.59-8.8 26.26-.05 3.33-1.32 7.78.95 10.55a3.07 3.07 0 0 0 5.15-.11 10 10 0 0 0 1.39-2.92 16.93 16.93 0 0 0 1.46 4.06 5.78 5.78 0 0 0 3.2 2.79 2.49 2.49 0 0 0 1.68 0 3 3 0 0 0 1.45-2.06 11.46 11.46 0 0 0 .38-4.42 6.61 6.61 0 0 0 .62 2.12 1.35 1.35 0 0 0 .43.57c2.22 1.45 1.35-3.56 1.33-4.09-.08-2.17-.2-4.29-.24-6.49z"/><path class="cls-31" d="M219.87 96.75a2.24 2.24 0 0 0 .14-.45 12.93 12.93 0 0 0-.16-3q-.18-2.79-.61-5.56a49.29 49.29 0 0 0-2.24-9.08c-.81-2.24-2.69-7.91-5.8-8.12h-.25c-3 0-5 5.74-5.72 7.79a48.3 48.3 0 0 0-2.31 9q-.45 2.73-.65 5.5c-.09 1.23-.75 3.81 0 4.82a1.83 1.83 0 0 0 2.4.39c1.23-.93.77-3 1.89-4.08a10.76 10.76 0 0 0 1.81 3.57 3.22 3.22 0 0 0 1.63 1.26 2.78 2.78 0 0 0 2.95-1.89 20 20 0 0 0 .71-3.71 19.47 19.47 0 0 0 1.18 4.22 4.28 4.28 0 0 0 1.16 1.82 1.76 1.76 0 0 0 2.06.17 2.56 2.56 0 0 0 .62-.78 16.87 16.87 0 0 0 1.19-1.87z"/><path class="cls-32" d="M114.47 68.08l73.7-.04M119.99 71.73l69.23-.27M122.56 74.45l67.8.1M127.37 78.72l64.38.28M133.82 84.01l59.54-.03M139.49 89.68l55.95-.1"/><path class="cls-23" d="M142.6 88.3L97.23 54.53 51.58 89.47l2.36 3.11 42.9-32.54 43.24 31.54 2.52-3.28zM94.02 88.31l3.03 3.78 22.93-17.65-4.03-2.64-21.93 16.51z"/></svg>
