<svg xmlns="http://www.w3.org/2000/svg" viewBox="0 0 1020 300"><path d="M291.33 199.28a41.86 41.86 0 0 1-16.63-16.92q-6.17-11.17-6.17-26.06a54.76 54.76 0 0 1 5.18-23.94 42.66 42.66 0 0 1 15.64-17.62q10.46-6.74 24.41-6.74a47.31 47.31 0 0 1 19.32 3.68 32.92 32.92 0 0 1 13.19 10.13 46.1 46.1 0 0 1 7.35 14.42 66 66 0 0 1 2.73 17.48 6.78 6.78 0 0 1-1.51 4.52 5.58 5.58 0 0 1-4.52 1.79h-64.64q.19 16.21 8.67 24.55t21.77 8.53a36.29 36.29 0 0 0 15.08-3 69.14 69.14 0 0 0 13.48-8.2 5.74 5.74 0 0 1 3.58-1.32 4.92 4.92 0 0 1 3.82 1.74 6 6 0 0 1 1.55 4.1 7.05 7.05 0 0 1-2.64 5.37q-14.89 13.38-36 13.38a49 49 0 0 1-23.66-5.89zm50.13-49.76q-.85-13.19-7.44-21.58t-19.32-8.39a27.61 27.61 0 0 0-12 2.54 24.58 24.58 0 0 0-8.81 6.83 35.67 35.67 0 0 0-5.47 9.52 39.12 39.12 0 0 0-2.5 11.07h55.51zM438.06 199.94l-26.76-33.17-26.67 33.55a7.18 7.18 0 0 1-5.75 3.11 7.92 7.92 0 0 1-5.61-2.26 7 7 0 0 1-2.4-5.28 6 6 0 0 1 1.51-4l29.68-36.56-26.58-32.89a7 7 0 0 1-1.7-4.52 7.87 7.87 0 0 1 2.45-5.75 8.09 8.09 0 0 1 5.94-2.45q3.77 0 6.69 3.58l24.31 30.16L437.59 113a7.11 7.11 0 0 1 5.94-3.2 7.55 7.55 0 0 1 5.32 2.17 6.67 6.67 0 0 1 2.31 5 7.16 7.16 0 0 1-1.6 4.24l-27 33.83 28.93 35.91a7.25 7.25 0 0 1 1.7 4.52 7.55 7.55 0 0 1-2.5 5.61 8.22 8.22 0 0 1-5.89 2.4 8.06 8.06 0 0 1-6.74-3.54zM478.11 237.12a7.14 7.14 0 0 1-2.54-5.8V117.77a7.17 7.17 0 0 1 2.5-5.84 9.07 9.07 0 0 1 6-2.07q4.24 0 6.41 2.12a7.74 7.74 0 0 1 2.17 5.8v8.39a30.59 30.59 0 0 1 13-13.62 40 40 0 0 1 19.3-4.55 38.41 38.41 0 0 1 17.67 4 34.94 34.94 0 0 1 12.77 10.84 51.74 51.74 0 0 1 7.49 15.6 65.53 65.53 0 0 1 2.59 18.66 60.6 60.6 0 0 1-2.83 18.8 47.87 47.87 0 0 1-8.06 15.27 36 36 0 0 1-13.28 10.23 42.07 42.07 0 0 1-17.86 3.72 36.89 36.89 0 0 1-18.52-4.57 30.13 30.13 0 0 1-12.3-13.05v43.82a7.14 7.14 0 0 1-2.54 5.8 9.13 9.13 0 0 1-6 2.12 9 9 0 0 1-5.97-2.12zm55.84-46.93a22.63 22.63 0 0 0 8.53-8.76 46.47 46.47 0 0 0 4.52-11.74 56.72 56.72 0 0 0 1.46-13 66.33 66.33 0 0 0-.75-10.08 47.62 47.62 0 0 0-2.69-9.9 33 33 0 0 0-4.85-8.67 22.43 22.43 0 0 0-7.59-6 24.06 24.06 0 0 0-10.6-2.45q-29.21 0-29.21 37.41a54.05 54.05 0 0 0 1.6 13.43 41.37 41.37 0 0 0 4.85 11.54 23.68 23.68 0 0 0 8.86 8.39 26.47 26.47 0 0 0 13.05 3.11 24.85 24.85 0 0 0 12.82-3.28zM594.07 191.46q-12.77-13.66-12.77-34.87t12.77-35Q606.84 108 628.51 108T663 121.58q12.77 13.62 12.77 35 0 21.2-12.72 34.87t-34.49 13.66q-21.72.02-34.49-13.65zm56.73-7.87q8-9.85 8-27t-8.06-27q-8.06-10-22.19-10t-22.24 9.94q-8 9.94-8 27.09 0 17 8 26.9t22.1 9.94q14.43-.02 22.39-9.87zM693.35 189.86a5.55 5.55 0 0 1 5.65-5.56 8 8 0 0 1 4.33 1.32 51.66 51.66 0 0 0 27.33 8.1q10.37 0 16.73-4.1a13.4 13.4 0 0 0 6.36-12 11.88 11.88 0 0 0-3.58-9q-3.58-3.39-11.87-5.47L721.62 159q-5.09-1.32-8.25-2.26a69.05 69.05 0 0 1-6.79-2.45 23.83 23.83 0 0 1-5.8-3.25 24.46 24.46 0 0 1-4.05-4.19A15.71 15.71 0 0 1 694 141a30.37 30.37 0 0 1-.85-7.54 22.67 22.67 0 0 1 3-11.78 22.08 22.08 0 0 1 8.25-8.06 42.53 42.53 0 0 1 11.73-4.43 68 68 0 0 1 44.48 5.7 6 6 0 0 1 3.67 5.56 5.25 5.25 0 0 1-1.46 3.72 5.11 5.11 0 0 1-3.91 1.56 8.3 8.3 0 0 1-2.92-.57q-.28-.09-3.06-1.18t-4.52-1.65q-1.74-.57-4.76-1.37a50.61 50.61 0 0 0-6.12-1.22 46.62 46.62 0 0 0-6.31-.42q-10.18 0-16.21 3.25a10.83 10.83 0 0 0-6 10.22q0 5.65 3.11 8t13.38 4.85l16.3 4.05q14.23 3.49 20.31 10t6.08 16.73q0 9.61-5 16.21a28.45 28.45 0 0 1-13.24 9.57 55.84 55.84 0 0 1-19 3 63.17 63.17 0 0 1-19.55-3.06 53.42 53.42 0 0 1-15.13-7.21 6 6 0 0 1-2.92-5.07zM793.15 85.12a10.81 10.81 0 0 1 0-15 11.19 11.19 0 0 1 8.06-2.92 11 11 0 0 1 7.96 2.8 10 10 0 0 1 3 7.59 9.88 9.88 0 0 1-3 7.49 12.6 12.6 0 0 1-16.02.04zm2 116.1a8.13 8.13 0 0 1-2.45-6.36v-76.62a7.82 7.82 0 0 1 2.59-6.22 9 9 0 0 1 6.08-2.26 8.49 8.49 0 0 1 5.89 2.26 8 8 0 0 1 2.5 6.22v76.62a8 8 0 0 1-2.59 6.27 8.85 8.85 0 0 1-6.08 2.31 8.54 8.54 0 0 1-5.96-2.22zM848.32 201.22a7.82 7.82 0 0 1-2.5-6.17v-73.23h-12.34a6.16 6.16 0 0 1-4.62-1.56 5.39 5.39 0 0 1-1.51-3.91 5.68 5.68 0 0 1 1.51-4.05 6.06 6.06 0 0 1 4.62-1.6h12.35v-12q0-16.87 7.16-24t19.79-7.12h11.5a5.2 5.2 0 0 1 4.29 1.93 7.07 7.07 0 0 1 1.56 4.57 6.88 6.88 0 0 1-1.56 4.52 5.36 5.36 0 0 1-4.38 1.88h-8a22.08 22.08 0 0 0-6.31.71 7.93 7.93 0 0 0-4 3.11 15.22 15.22 0 0 0-2.36 6.88 93.69 93.69 0 0 0-.61 12.11v7.35h15.93a5.9 5.9 0 0 1 4.57 1.6 5.79 5.79 0 0 1 1.46 4.05q0 5.47-6 5.47h-15.99V195a7.75 7.75 0 0 1-2.54 6.17 8.88 8.88 0 0 1-6 2.21 8.7 8.7 0 0 1-6.02-2.16zM923.57 240.84a8.38 8.38 0 0 1-5.65-2.12 6.75 6.75 0 0 1-2.45-5.32 8.73 8.73 0 0 1 .85-3.58l16.87-35.72-35.06-72.28a8.31 8.31 0 0 1-.85-3.77 7.19 7.19 0 0 1 2.59-5.65 8.71 8.71 0 0 1 5.89-2.26q5 0 7.35 5l28.65 60.78 28.84-61.07q2.54-5.18 7.45-5.18a8.28 8.28 0 0 1 5.8 2.31 7.27 7.27 0 0 1 2.5 5.51 8.37 8.37 0 0 1-.66 3.2l-54.48 114.88q-2.55 5.27-7.64 5.27zM62.53 270.28l119.95-36.68A14.89 14.89 0 0 0 193 219.32v-51.51L120.57 190l-19-5.8 91.44-28V99.46l-72.43 22.17-19-5.8 91.44-28v-47.4a11.14 11.14 0 0 0-14.39-10.7L58.59 66.4A15 15 0 0 0 48 80.67v178.9a11.25 11.25 0 0 0 14.53 10.71z" fill="#fff"/></svg>
