<svg xmlns="http://www.w3.org/2000/svg" width="215.77" height="215.74" viewBox="0 0 215.77 215.74"><path d="M212.84,96.8c-4.6-36.4-8.3-73-26.2-86.2C170-4.1,133.54-.2,96.84,2.9c-36.4,4.6-73,8.3-86.2,26.2-14.8,16.7-10.8,53.2-7.7,89.8,4.6,36.4,8.3,73,26.2,86.2,16.7,14.8,53.2,10.8,89.8,7.7,36.4-4.6,73-8.3,86.2-26.2C219.94,169.9,215.94,133.4,212.84,96.8Zm-59.9-27.5L96.14,86.7l11.8,3.6,45-13.8v35.2l-56.8,17.4,11.8,3.6,45-13.8v32a9.24,9.24,0,0,1-6.5,8.9l-74.5,22.8a6.45,6.45,0,0,1-2,.3,7,7,0,0,1-7-7V64.8a9.33,9.33,0,0,1,6.6-8.9l74.6-22.8a6.45,6.45,0,0,1,2-.3,6.82,6.82,0,0,1,6.8,7.1Z" fill="#ffffff"/></svg>
