<svg xmlns="http://www.w3.org/2000/svg" viewBox="0 0 249.1 352.29"><defs><style>.cls-1{fill:#fff;}.cls-2{fill:none;stroke:#fff;stroke-miterlimit:10;stroke-width:4px;}</style></defs><title>expose_outline</title><path class="cls-1" d="M14.65 12.52h31.99v7.72H14.65zM14.65 23.36h103.72v3.69H14.65zM14.65 151.78h23.23v6.56H14.65zM14.65 208.28h68.2v6.56h-68.2zM14.65 166.77h52.56v3.79H14.65zM14.65 172.77h39.13v3.79H14.65zM14.65 178.77h64.87v3.79H14.65zM14.65 184.77h62.84v3.79H14.65zM14.65 190.77h81.03v3.79H14.65zM124.65 166.77h62v3.79h-62zM124.65 172.77h69.97v3.79h-69.97zM124.65 178.77h49.99v3.79h-49.99zM124.65 184.77h42.88v3.79h-42.88zM124.65 190.77h45.25v3.79h-45.25zM14.65 223.77H221.9v3.79H14.65zM14.65 229.77h40.76v3.79H14.65zM196.74 26.44h9.41V13.13h-9.41zm12-13.31v13.31h25.68V13.13zM79.09 325.77h90.93v3.79H79.09z"/><path class="cls-2" d="M0 38.16h249.1M0 133.93h249.1"/><path class="cls-1" d="M244.1 4a1 1 0 0 1 1 1v342.29a1 1 0 0 1-1 1H5a1 1 0 0 1-1-1V5a1 1 0 0 1 1-1h239.1m0-4H5a5 5 0 0 0-5 5v342.29a5 5 0 0 0 5 5h239.1a5 5 0 0 0 5-5V5a5 5 0 0 0-5-5z"/></svg>
