<svg xmlns="http://www.w3.org/2000/svg" viewBox="0 0 249.1 352.29"><defs><style>.cls-1{fill:#878787;}.cls-2{fill:#fff;}.cls-3{fill:#bababa;}</style></defs><title>expose_draft</title><path class="cls-1" d="M5 0h239.1a5 5 0 0 1 5 5v33.16H0V5a5 5 0 0 1 5-5z"/><path class="cls-2" d="M0 133.93h249.1v213.36a5 5 0 0 1-5 5H5a5 5 0 0 1-5-5V133.93zM14.65 12.52h31.99v7.72H14.65zM14.65 23.36h103.72v3.69H14.65z"/><path class="cls-3" d="M14.65 151.78h23.23v6.56H14.65zM14.65 208.28h68.2v6.56h-68.2zM14.65 166.77h52.56v3.79H14.65zM14.65 172.77h39.13v3.79H14.65zM14.65 178.77h64.87v3.79H14.65zM14.65 184.77h62.84v3.79H14.65zM14.65 190.77h81.03v3.79H14.65zM124.65 166.77h62v3.79h-62zM124.65 172.77h69.97v3.79h-69.97zM124.65 178.77h49.99v3.79h-49.99zM124.65 184.77h42.88v3.79h-42.88zM124.65 190.77h45.25v3.79h-45.25zM14.65 223.77H221.9v3.79H14.65zM14.65 229.77h40.76v3.79H14.65zM0 38.16h249.1v95.76H0z"/><path class="cls-2" d="M196.74 26.44h9.41V13.13h-9.41zm12-13.31v13.31h25.68V13.13z"/><path class="cls-3" d="M79.09 325.77h90.93v3.79H79.09z"/></svg>
