<svg xmlns="http://www.w3.org/2000/svg" viewBox="0 0 193.93 50"><defs><linearGradient id="a" x1="7.5" y1="38.04" x2="7.5" y2="32.49" gradientUnits="userSpaceOnUse"><stop offset="0" stop-color="#56c6cc"/><stop offset="1" stop-color="#d3aa4f"/></linearGradient></defs><title>exposify-logo</title><path fill="#ffca45" d="M0 35.46l30.02-9.17V14.54L0 23.71v11.75z"/><path d="M73.58 223.75l30-9.18v-9.82a2.32 2.32 0 0 0-3-2.22l-24.84 7.59a3.09 3.09 0 0 0-2.19 3v10.66z" transform="translate(-73.58 -202.44)" fill="#ffca45"/><path d="M76.57 252.34l24.84-7.59a3.09 3.09 0 0 0 2.19-3v-10.62l-30 9.18v9.82a2.32 2.32 0 0 0 2.97 2.21z" transform="translate(-73.58 -202.44)" fill="#6ddce8"/><path fill="#d3aa4f" d="M11.08 17.93L0 21.31v2.4l15.01-4.58-3.93-1.2z"/><path fill="url(#a)" d="M11.08 32.08L0 35.46v2.4l15.01-4.59-3.93-1.19z"/><path opacity=".2" d="M0 21.31l13.07-2.78-1.99-.6L0 21.31zM0 35.46l13.07-2.78-1.99-.6L0 35.46z"/><path d="M123.46 237.66a8.68 8.68 0 0 1-3.45-3.51 11 11 0 0 1-1.28-5.4 11.35 11.35 0 0 1 1.07-5 8.84 8.84 0 0 1 3.24-3.65 9.09 9.09 0 0 1 5.06-1.41 9.81 9.81 0 0 1 4 .76 6.82 6.82 0 0 1 2.73 2.1 9.56 9.56 0 0 1 1.52 3 13.68 13.68 0 0 1 .57 3.62 1.41 1.41 0 0 1-.31.94 1.16 1.16 0 0 1-.94.37h-13.4a7 7 0 0 0 1.8 5.09 6.3 6.3 0 0 0 4.51 1.77 7.52 7.52 0 0 0 3.13-.62 14.32 14.32 0 0 0 2.79-1.7 1.19 1.19 0 0 1 .74-.27 1 1 0 0 1 .79.36 1.24 1.24 0 0 1 .32.85 1.46 1.46 0 0 1-.55 1.11 10.77 10.77 0 0 1-7.46 2.77 10.16 10.16 0 0 1-4.88-1.18zm10.39-10.31a7.87 7.87 0 0 0-1.54-4.47 4.79 4.79 0 0 0-4-1.74 5.72 5.72 0 0 0-2.48.53 5.09 5.09 0 0 0-1.83 1.42 7.4 7.4 0 0 0-1.13 2 8.11 8.11 0 0 0-.52 2.29h11.5zM153.87 237.79l-5.55-6.87-5.53 7a1.49 1.49 0 0 1-1.19.64 1.64 1.64 0 0 1-1.16-.47 1.46 1.46 0 0 1-.5-1.09 1.24 1.24 0 0 1 .31-.82l6.15-7.58-5.51-6.82a1.45 1.45 0 0 1-.35-.94 1.63 1.63 0 0 1 .51-1.19 1.68 1.68 0 0 1 1.23-.51 1.77 1.77 0 0 1 1.39.74l5 6.25 5.06-6.33a1.47 1.47 0 0 1 1.23-.66 1.57 1.57 0 0 1 1.1.45 1.38 1.38 0 0 1 .48 1 1.48 1.48 0 0 1-.33.88l-5.61 7 6 7.44a1.5 1.5 0 0 1 .35.94 1.57 1.57 0 0 1-.52 1.16 1.7 1.7 0 0 1-1.22.5 1.67 1.67 0 0 1-1.34-.72zM162.17 245.5a1.48 1.48 0 0 1-.53-1.2v-23.54a1.49 1.49 0 0 1 .52-1.21 1.88 1.88 0 0 1 1.24-.43 1.83 1.83 0 0 1 1.33.44 1.6 1.6 0 0 1 .45 1.2v1.74a6.34 6.34 0 0 1 2.69-2.82 8.29 8.29 0 0 1 4-.95 8 8 0 0 1 3.66.83 7.24 7.24 0 0 1 2.65 2.25 10.72 10.72 0 0 1 1.55 3.23 13.58 13.58 0 0 1 .54 3.87 12.56 12.56 0 0 1-.59 3.9A9.92 9.92 0 0 1 178 236a7.47 7.47 0 0 1-2.75 2.13 8.72 8.72 0 0 1-3.7.77 7.64 7.64 0 0 1-3.84-.95 6.24 6.24 0 0 1-2.55-2.71v9.08a1.48 1.48 0 0 1-.53 1.2 1.89 1.89 0 0 1-1.25.44 1.86 1.86 0 0 1-1.21-.46zm11.57-9.73a4.69 4.69 0 0 0 1.77-1.82 9.65 9.65 0 0 0 .93-2.43 11.76 11.76 0 0 0 .3-2.7 13.75 13.75 0 0 0-.16-2.09 9.87 9.87 0 0 0-.56-2.05 6.83 6.83 0 0 0-1-1.8 4.65 4.65 0 0 0-1.57-1.25 5 5 0 0 0-2.2-.51q-6.05 0-6.05 7.75a11.19 11.19 0 0 0 .33 2.78 8.57 8.57 0 0 0 1 2.39 4.91 4.91 0 0 0 1.84 1.74 5.49 5.49 0 0 0 2.71.64 5.15 5.15 0 0 0 2.67-.65zM186.21 236a11.22 11.22 0 0 1 0-14.47 10.43 10.43 0 0 1 14.28 0 11.25 11.25 0 0 1 0 14.48 10.43 10.43 0 0 1-14.28-.01zm11.79-1.6a10.28 10.28 0 0 0 0-11.2 6.17 6.17 0 0 0-9.21 0 10.29 10.29 0 0 0 0 11.19 5.54 5.54 0 0 0 4.58 2.06 5.65 5.65 0 0 0 4.63-2.05zM206.78 235.7a1.15 1.15 0 0 1 1.17-1.15 1.65 1.65 0 0 1 .9.27 10.7 10.7 0 0 0 5.66 1.68 6.31 6.31 0 0 0 3.47-.85 2.78 2.78 0 0 0 1.32-2.49 2.46 2.46 0 0 0-.74-1.87 5.57 5.57 0 0 0-2.46-1.13l-3.46-.86q-1.05-.27-1.71-.47a14.3 14.3 0 0 1-1.41-.51 4.93 4.93 0 0 1-1.2-.67 5.05 5.05 0 0 1-.84-.87 3.25 3.25 0 0 1-.57-1.19 6.29 6.29 0 0 1-.18-1.56 4.7 4.7 0 0 1 .63-2.44 4.57 4.57 0 0 1 1.71-1.67 8.81 8.81 0 0 1 2.43-.92 14.1 14.1 0 0 1 9.22 1.18 1.24 1.24 0 0 1 .76 1.15 1.09 1.09 0 0 1-.3.77 1.06 1.06 0 0 1-.81.32 1.72 1.72 0 0 1-.61-.12l-.63-.24-.94-.34-1-.28a10.5 10.5 0 0 0-1.27-.25 9.68 9.68 0 0 0-1.31-.09 7.1 7.1 0 0 0-3.36.67 2.24 2.24 0 0 0-1.25 2.12 1.93 1.93 0 0 0 .64 1.65 9 9 0 0 0 2.77 1l3.38.84a8.39 8.39 0 0 1 4.21 2.08 4.9 4.9 0 0 1 1.26 3.47 5.37 5.37 0 0 1-1 3.36 5.9 5.9 0 0 1-2.74 2 11.57 11.57 0 0 1-3.95.62 13.1 13.1 0 0 1-4.05-.63 11.07 11.07 0 0 1-3.13-1.49 1.24 1.24 0 0 1-.61-1.09zM227.47 214a2.24 2.24 0 0 1 0-3.12 2.32 2.32 0 0 1 1.67-.61 2.28 2.28 0 0 1 1.64.6 2.07 2.07 0 0 1 .63 1.57 2 2 0 0 1-.62 1.55 2.61 2.61 0 0 1-3.32.01zm.41 24.06a1.68 1.68 0 0 1-.51-1.32v-15.88a1.62 1.62 0 0 1 .54-1.29 1.85 1.85 0 0 1 1.26-.47 1.76 1.76 0 0 1 1.22.47 1.65 1.65 0 0 1 .52 1.29v15.88a1.65 1.65 0 0 1-.54 1.3 1.83 1.83 0 0 1-1.26.48 1.77 1.77 0 0 1-1.23-.46zM238.9 238.06a1.62 1.62 0 0 1-.52-1.28V221.6h-2.56a1.28 1.28 0 0 1-1-.32 1.12 1.12 0 0 1-.31-.81 1.18 1.18 0 0 1 .31-.84 1.26 1.26 0 0 1 1-.33h2.56v-2.48q0-3.5 1.48-5a5.56 5.56 0 0 1 4.1-1.47h2.38a1.08 1.08 0 0 1 .89.4 1.47 1.47 0 0 1 .32.95 1.43 1.43 0 0 1-.32.94 1.11 1.11 0 0 1-.91.39h-1.66a4.58 4.58 0 0 0-1.31.15 1.64 1.64 0 0 0-.83.64 3.15 3.15 0 0 0-.49 1.43 19.39 19.39 0 0 0-.13 2.51v1.52h3.3a1.22 1.22 0 0 1 .95.33 1.2 1.2 0 0 1 .3.84 1.06 1.06 0 0 1-1.25 1.13h-3.3v15.18a1.61 1.61 0 0 1-.53 1.28 1.84 1.84 0 0 1-1.25.46 1.8 1.8 0 0 1-1.22-.44zM254.5 246.27a1.74 1.74 0 0 1-1.17-.44 1.4 1.4 0 0 1-.51-1.1 1.81 1.81 0 0 1 .18-.73l3.5-7.4-7.27-15a1.72 1.72 0 0 1-.18-.78 1.49 1.49 0 0 1 .54-1.17 1.8 1.8 0 0 1 1.22-.47 1.6 1.6 0 0 1 1.52 1l5.94 12.6 6-12.66a1.66 1.66 0 0 1 1.54-1.07 1.72 1.72 0 0 1 1.2.48 1.51 1.51 0 0 1 .52 1.14 1.74 1.74 0 0 1-.14.66l-11.29 23.81a1.69 1.69 0 0 1-1.6 1.13z" transform="translate(-73.58 -202.44)" fill="#454c5b"/></svg>