<svg xmlns="http://www.w3.org/2000/svg" width="699.2" height="173" viewBox="0 0 699.2 173"><path  d="M673.5,40.6,653.6,95.7l-21-55.1H606.1l33.8,84.5-4.3,10.7c-1.6,4.2-4.9,7.7-9.8,10.4a136.48,136.48,0,0,1-14,6.8l8.6,20a63.67,63.67,0,0,0,22.9-10.7,42.85,42.85,0,0,0,15.2-18.9l4.9-12,35.8-90.9H673.5ZM587.3,0c-11.2,0-20,3-26.1,9.1s-9.3,14.3-9.3,24.8v6.7H537.8v19h14.1v72h24.4v-72h21.1v-19H576.3V37.2a22,22,0,0,1,2.9-11.7c1.9-3.1,5-4.6,9.3-4.6a16.89,16.89,0,0,1,4.8.7,30.17,30.17,0,0,1,5.3,1.8l6.9-17.6a25.28,25.28,0,0,0-8.4-4.1A31.56,31.56,0,0,0,587.3,0ZM512.6.3a13.32,13.32,0,0,0-13.5,13.6,13.12,13.12,0,0,0,3.9,9.7,13,13,0,0,0,9.6,3.9,13.5,13.5,0,0,0,9.8-3.9,13,13,0,0,0,4-9.7,12.83,12.83,0,0,0-4-9.7A14.1,14.1,0,0,0,512.6.3ZM500.4,131.5h24.4V40.6H500.4ZM473.2,86.1A79.33,79.33,0,0,0,452,74.6a44.22,44.22,0,0,1-10-4.5c-2.1-1.4-3.1-2.8-3.1-4.3a5.78,5.78,0,0,1,2.5-5Q444,59,448.6,59a42.94,42.94,0,0,1,12,1.6,95,95,0,0,1,12.2,4.6l7.3-17.4A52.5,52.5,0,0,0,464,40.7a61.76,61.76,0,0,0-15-2.4c-10.9,0-19.5,2.5-25.9,7.4s-9.6,11.7-9.6,20.3c0,7.5,3.2,13.5,9.7,17.9a81.8,81.8,0,0,0,20.5,10.2c5.1,1.6,8.9,3.4,11.2,5.4s3.6,4.2,3.6,6.7c0,2-1.2,3.6-3.6,4.9s-5.8,1.9-10.3,1.9a41.88,41.88,0,0,1-11.1-1.6,77.29,77.29,0,0,1-12.6-4.6l-7.3,17.6a42.08,42.08,0,0,0,16,7.1,71.08,71.08,0,0,0,15.5,2.2q18.6,0,28.2-7.5c6.4-5,9.7-12,9.7-21A23.2,23.2,0,0,0,473.2,86.1ZM352.3,38.2c-14.6,0-26.1,4.3-34.6,12.9s-12.6,20.2-12.6,34.7,4,26.2,12.1,34.9,19.3,13,33.6,13.1c14.7-.1,26.6-4.4,35.6-12.7s13.5-19.8,13.5-34.3-4.2-26.2-12.5-35.1S367.5,38.2,352.3,38.2Zm16,68.5q-6.6,6.3-17.1,6.3c-7.1,0-12.4-2.3-15.8-6.9s-5.2-11.4-5.2-20.4,2-15.7,6-20,9.6-6.6,16.7-6.6,12.4,2.5,16.2,7.4,5.7,11.7,5.7,20.3C374.8,95.8,372.6,102.5,368.3,106.7ZM251,37.1a45.44,45.44,0,0,0-14.6,2.8A51.63,51.63,0,0,0,222,47.4l-5.2-6.7H204.4V172.6h24.2V127.4a52.44,52.44,0,0,0,11.5,4.7,42.8,42.8,0,0,0,11,1.7c13,0,23.1-4.6,30.4-13.9s11-20.7,11-34.5-3.6-25.2-10.7-34.5S264.3,37.1,251,37.1Zm11.2,66.8c-3.4,6.1-9.2,9.1-17.6,9.1a25,25,0,0,1-8.2-1.5,44.78,44.78,0,0,1-8-3.7V63.2a34.5,34.5,0,0,1,8-3.8,26.65,26.65,0,0,1,8.2-1.4c9.1,0,15.2,2.8,18.2,8.4a39.9,39.9,0,0,1,4.5,19.1A37.37,37.37,0,0,1,262.2,103.9ZM165.7,40.6,142.8,69.8,120.9,40.6H93.3l34,44.8L93,131.5h27l21.5-27.2,21,27.2h26.8L157.3,89l35-48.3H165.7ZM24.1,76.8H60.2V57.5H24.1V23.2H77.9V4.1H0V131.5H87.2V112.6H24.1Z" fill="#ffffff"/></svg>
