<svg xmlns="http://www.w3.org/2000/svg" width="1067.24" height="143.2" viewBox="0 0 1067.24 143.2"><defs><style>.cls-1{fill:#fff;}.cls-2{fill:#e04912;fill-rule:evenodd;}</style></defs><title>logo_hausgold</title><path class="cls-1" d="M225.75 114.27c-17 13.51-21.59 16.69-37.62 25.7h85.73s-7.34-25.41-18.31-54.59c-9.55 10.46-14.96 17.11-29.8 28.89zm-147.59-62H35.57V2.18H-.35v138.64h35.92V85.37h42.59v55.46h35.92V2.18H78.16zm275.58 42a14.65 14.65 0 0 1-1.77 7.43 15.87 15.87 0 0 1-4.51 5.05 19.62 19.62 0 0 1-6.38 3 27 27 0 0 1-7.16 1 28.41 28.41 0 0 1-7.56-1 19.57 19.57 0 0 1-6.38-3 15.84 15.84 0 0 1-4.51-5.05 14.65 14.65 0 0 1-1.77-7.43V2.18h-35.92v92.89a44.18 44.18 0 0 0 4.61 20.6 43.35 43.35 0 0 0 12.46 14.86 57 57 0 0 0 17.86 9 72.7 72.7 0 0 0 41.81 0 55.85 55.85 0 0 0 17.76-9 43.07 43.07 0 0 0 17-35.45V2.18h-35.54zm153-27.93a52.89 52.89 0 0 0-17.47-6.83 181.47 181.47 0 0 0-20.9-3.07q-10-1-15.51-3.27T447.37 44a10.83 10.83 0 0 1 1.77-6.44 11.42 11.42 0 0 1 4.51-3.77 21.94 21.94 0 0 1 6.09-1.79 43.29 43.29 0 0 1 6.28-.49 25.65 25.65 0 0 1 12.86 3.17q5.59 3.17 5.79 10.3h33.57a39.63 39.63 0 0 0-4.32-19.71 42.73 42.73 0 0 0-12-14.06 51.87 51.87 0 0 0-17-8.42A69.51 69.51 0 0 0 465.43 0a72.63 72.63 0 0 0-20.22 2.77 51.77 51.77 0 0 0-17 8.32 41.19 41.19 0 0 0-11.78 14A41.83 41.83 0 0 0 412 44.76q0 10.89 4.32 18.32a35.76 35.76 0 0 0 11.38 12.08 52.22 52.22 0 0 0 16.1 6.93A101.31 101.31 0 0 0 462.29 85q3.73.2 8.15.59a30.28 30.28 0 0 1 8.24 1.88 16.78 16.78 0 0 1 6.38 4.26q2.55 2.77 2.55 7.72a8.73 8.73 0 0 1-1.86 5.55 16.29 16.29 0 0 1-4.81 4.06 25 25 0 0 1-6.77 2.58 33.32 33.32 0 0 1-7.56.89 36.3 36.3 0 0 1-8-.89 24.44 24.44 0 0 1-7-2.67 15.26 15.26 0 0 1-4.91-4.46 10.62 10.62 0 0 1-1.87-6.24h-34.16q-.2 11.69 4.51 20.2a40.68 40.68 0 0 0 12.56 14 56.39 56.39 0 0 0 18.06 8.12 83.29 83.29 0 0 0 21.2 2.61 79.52 79.52 0 0 0 20.61-2.67 57.87 57.87 0 0 0 18-8.12 42.24 42.24 0 0 0 12.76-13.67 37.15 37.15 0 0 0 4.81-19.11q0-12.67-4.42-20.6a34.66 34.66 0 0 0-12.01-12.68zm102-4.16V92.7H638q-4.91 9.9-12 13.57t-17.67 3.66a35.23 35.23 0 0 1-14.23-2.77 30 30 0 0 1-10.8-7.82 36.25 36.25 0 0 1-6.87-12.08A47.51 47.51 0 0 1 574 71.5a48.62 48.62 0 0 1 2.26-15 37.91 37.91 0 0 1 6.58-12.38 31.42 31.42 0 0 1 10.8-8.52 33.08 33.08 0 0 1 14.72-3.17q10 0 16.78 3.46t11.29 11.78h34.94A58.63 58.63 0 0 0 662.2 26a57.84 57.84 0 0 0-14.92-14.76 63.1 63.1 0 0 0-18.65-8.51A76.53 76.53 0 0 0 608.32 0a75.69 75.69 0 0 0-25.81 4.56A68.88 68.88 0 0 0 559.84 18a65.69 65.69 0 0 0-16.1 22.38q-6.09 13.47-6.08 31.29t6.08 31.2a65.88 65.88 0 0 0 16.1 22.28 67.43 67.43 0 0 0 22.67 13.37 77.18 77.18 0 0 0 25.81 4.48 79.63 79.63 0 0 0 18.94-2.28 64.6 64.6 0 0 0 17.57-7.13A56.66 56.66 0 0 0 659.55 121a57.73 57.73 0 0 0 10.21-18.62 78.65 78.65 0 0 0 3.93-20.1 147.58 147.58 0 0 0-.2-20.1zm198.32-44.35a66.57 66.57 0 0 0-22.48-13.37A76.34 76.34 0 0 0 758.87 0a78.57 78.57 0 0 0-26.11 4.46 65.18 65.18 0 0 0-38.66 35.65Q688 53.48 688 71.5t5.9 31.5a65.43 65.43 0 0 0 15.6 22.38 62.92 62.92 0 0 0 22.5 13.26 80.88 80.88 0 0 0 26.3 4.36 75.91 75.91 0 0 0 28.56-5.25 65.42 65.42 0 0 0 22.38-14.66 66.17 66.17 0 0 0 14.53-22.58 78.35 78.35 0 0 0 5.2-29q0-18-6-31.39a65.54 65.54 0 0 0-15.91-22.29zM790 87.74a36.09 36.09 0 0 1-7.85 11.59 32.4 32.4 0 0 1-11 7 35.06 35.06 0 0 1-12.66 2.38 35.57 35.57 0 0 1-12.86-2.38 32.37 32.37 0 0 1-11-7 34.78 34.78 0 0 1-7.75-11.59 41.32 41.32 0 0 1-2.94-16.24 41.89 41.89 0 0 1 2.94-16.44 34.1 34.1 0 0 1 7.85-11.59 30.76 30.76 0 0 1 11.19-6.83 39.28 39.28 0 0 1 13-2.18 35.55 35.55 0 0 1 12.56 2.28 31.39 31.39 0 0 1 10.89 6.93 34.88 34.88 0 0 1 7.75 11.58A41.35 41.35 0 0 1 793 71.5a40.16 40.16 0 0 1-3 16.24zm89.19-85.56h-35.92v138.64h85.58v-32.48h-49.66zm183.72 43.68a67 67 0 0 0-12.76-22.08A62.81 62.81 0 0 0 1029 8.12q-12.76-5.94-29.44-5.94h-52.45v138.64h52.41q17.08 0 29.84-6a63.21 63.21 0 0 0 34-38.23 78.12 78.12 0 0 0 3.93-25.65 75.65 75.65 0 0 0-4.38-25.09zm-33.56 39a35.17 35.17 0 0 1-6 11.79 30.83 30.83 0 0 1-10 8.32 30 30 0 0 1-14.23 3.17H983V34.86h16.1a29.78 29.78 0 0 1 13.96 3.14 31.19 31.19 0 0 1 10.11 8.22 35.45 35.45 0 0 1 6.08 11.69 44.85 44.85 0 0 1 2.06 13.37 47.63 47.63 0 0 1-1.96 13.59z"/><path class="cls-2" d="M129.26 140.35S165.45 1.67 201 1.67c13.78 0 28.87 24.63 41.7 53.14-25.41 31.4-71.62 67.18-101.05 85.54z"/></svg>