<?xml version="1.0" encoding="utf-8"?>
<!-- Generator: Adobe Illustrator 22.0.0, SVG Export Plug-In . SVG Version: 6.00 Build 0)  -->
<svg version="1.1" id="Layer_1" xmlns="http://www.w3.org/2000/svg" xmlns:xlink="http://www.w3.org/1999/xlink" x="0px" y="0px"
	 viewBox="0 0 504.7 504.7" style="enable-background:new 0 0 504.7 504.7;" xml:space="preserve">
<style type="text/css">
	.st0{fill:#AAB1BA;}
	.st1{fill:#ECF4F7;}
	.st2{fill:#54BAC5;}
	.st3{fill:#293143;}
</style>
<path class="st0" d="M499.6,80.8c0,19.6-8.5,34.1-25.6,51.2l-25.6,25.6L346,55.2l25.6-25.6C388.6,12.6,403.1,4,422.8,4
	C465.4,4,499.6,38.2,499.6,80.8"/>
<g>
	<polygon class="st1" points="448.4,157.6 422.8,183.2 320.4,80.8 346,55.2 	"/>
	<polygon class="st1" points="51.6,486.1 4.6,499 47.3,353.9 149.7,456.3 	"/>
</g>
<g>
	<polygon class="st2" points="4.6,498.9 51.6,486.1 17.4,452 	"/>
	
		<rect x="41.9" y="196.1" transform="matrix(0.7071 -0.7071 0.7071 0.7071 -121.058 244.8412)" class="st2" width="386.2" height="144.8"/>
</g>
<path class="st3" d="M4.6,503.2c-0.9,0-2.6-0.9-3.4-1.7s-1.7-2.6-0.9-4.3L43,352.2c0,0,0-0.9,0.9-0.9l0.9-0.9L317.8,77.4
	c1.7-1.7,4.3-1.7,6,0l76.8,76.8c1.7,1.7,1.7,4.3,0,6s-4.3,1.7-6,0l-73.4-73.4L54.1,353.9l73.4,73.4c1.7,1.7,1.7,4.3,0,6
	c-1.7,1.7-4.3,1.7-6,0l-71.7-71.7L11.4,493l11.9-2.6c2.6-0.9,4.3,0.9,5.1,3.4c0.9,2.6-0.9,4.3-3.4,5.1l-18.8,4.3
	C5.5,503.2,4.6,503.2,4.6,503.2z M51.6,490.4c-0.9,0-2.6-0.9-3.4-0.9l-12.8-12.8c-1.7-1.7-1.7-4.3,0-6c1.7-1.7,4.3-1.7,6,0
	l11.1,11.1l94.7-29l295.3-295.3l-99-99c-1.7-1.7-1.7-4.3,0-6c1.7-1.7,4.3-1.7,6,0l102.4,102.4c1.7,1.7,1.7,4.3,0,6L153.1,459.7
	c-0.9,0.9-0.9,0.9-1.7,0.9l-98.1,29.9C52.4,490.4,52.4,490.4,51.6,490.4z M149.7,392.3c-0.9,0-2.6,0-3.4-0.9c-1.7-1.7-1.7-4.3,0-6
	l213.3-213.3c1.7-1.7,4.3-1.7,6,0s1.7,4.3,0,6L152.2,391.4C152.2,392.3,150.5,392.3,149.7,392.3z M115.6,358.1c-0.9,0-2.6,0-3.4-0.9
	c-1.7-1.7-1.7-4.3,0-6L325.5,138c1.7-1.7,4.3-1.7,6,0s1.7,4.3,0,6L118.1,357.3C118.1,358.1,116.4,358.1,115.6,358.1z M469.7,140.6
	c-0.9,0-2.6,0-3.4-0.9c-1.7-1.7-1.7-4.3,0-6l4.3-4.3c17.9-17.9,24.7-30.7,24.7-47.8c0-40.1-32.4-72.5-72.5-72.5
	C405.7,9.1,392,16,375,33.9l-4.3,4.3c-1.7,1.7-4.3,1.7-6,0s-1.7-4.3,0-6l4.3-4.3c18.8-18.8,35-26.5,54.6-26.5
	c44.4,0,81.1,36.7,81.1,81.1c0,19.6-7.7,35-26.5,54.6l-4.3,4.3C472.2,140.6,470.5,140.6,469.7,140.6z"/>
</svg>
