<?xml version="1.0" encoding="utf-8"?>
<!-- Generator: Adobe Illustrator 22.0.0, SVG Export Plug-In . SVG Version: 6.00 Build 0)  -->
<svg version="1.1" id="Layer_1" xmlns="http://www.w3.org/2000/svg" xmlns:xlink="http://www.w3.org/1999/xlink" x="0px" y="0px"
	 viewBox="0 0 503.5 503.5" style="enable-background:new 0 0 503.5 503.5;" xml:space="preserve">
<style type="text/css">
	.st0{fill:#74DDE2;}
	.st1{fill:#ECF4F7;}
	.st2{fill:#FFCA46;}
	.st3{fill:#293143;}
</style>
<path class="st0" d="M140.8,482.1H72.5v-128l68.3-68.3l68.3-68.3v264.5L140.8,482.1L140.8,482.1z M277.3,209.1v273.1h-68.3V217.6
	l20.5-20.5l0,0c4.3,7.7,12.8,11.9,22.2,11.9c6.8,0,13.7-2.6,17.9-7.7L277.3,209.1z M345.6,294.4v187.7h-68.3V209.1l41.8,41.8
	c-4.3,4.3-7.7,11.1-7.7,17.9c0,14.5,11.1,25.6,25.6,25.6c2.6,0,5.1,0,7.7-1.7L345.6,294.4z M413.9,192v290.1h-68.3V294.4l-0.9-1.7
	c10.2-3.4,17.9-12.8,17.9-23.9c0-6.8-2.6-13.7-7.7-17.9L413.9,192z M72.5,354.1v128H55.5c-18.8,0-34.1-15.4-34.1-34.1v-34.1l0.9-1.7
	c2.6,0.9,5.1,1.7,7.7,1.7c14.5,0,25.6-11.1,25.6-25.6c0-5.1-1.7-9.4-3.4-13.7l0,0L72.5,354.1z M482.1,156.2V448
	c0,18.8-15.4,34.1-34.1,34.1h-34.1V192l41.8-41.8c4.3,4.3,11.1,7.7,17.9,7.7C477,157.9,479.6,157,482.1,156.2L482.1,156.2z"/>
<path class="st1" d="M482.1,55.5v51.2l-0.9,1.7c-2.6-0.9-5.1-1.7-7.7-1.7c-14.5,0-25.6,11.1-25.6,25.6c0,6.8,2.6,13.7,7.7,17.9
	L413.9,192L355,250.9c-4.3-4.3-11.1-7.7-17.9-7.7s-13.7,2.6-17.9,7.7l-41.8-41.8l-7.7-7.7c4.3-4.3,7.7-11.1,7.7-17.9
	c0-14.5-11.1-25.6-25.6-25.6c-14.5,0-25.6,11.1-25.6,25.6c0,5.1,1.7,9.4,3.4,13.7l0,0l-20.5,20.5l-68.3,68.3l-68.3,68.3l-20.5,20.5
	l0,0c-4.3-7.7-12.8-11.9-22.2-11.9c-3.4,0-6,0.9-8.5,1.7l0,0V55.5c0-18.8,15.4-34.1,34.1-34.1H448C466.8,21.3,482.1,36.7,482.1,55.5
	"/>
<path class="st2" d="M52.1,374.6c2.6,3.4,3.4,8.5,3.4,13.7c0,14.5-11.1,25.6-25.6,25.6c-2.6,0-5.1,0-7.7-1.7
	c-10.2-3.4-17.9-12.8-17.9-23.9s6.8-20.5,17.1-23.9c2.6-0.9,5.1-1.7,8.5-1.7C39.3,362.7,46.9,367.8,52.1,374.6z M481.3,108.4
	c10.2,3.4,17.9,12.8,17.9,23.9s-6.8,20.5-17.1,23.9c-2.6,0.9-6,1.7-8.5,1.7c-6.8,0-13.7-2.6-17.9-7.7c-4.3-4.3-7.7-11.1-7.7-17.9
	c0-14.5,11.1-25.6,25.6-25.6C476.2,106.7,478.7,107.5,481.3,108.4z M355,250.9c4.3,4.3,7.7,11.1,7.7,17.9c0,11.1-7.7,20.5-17.9,23.9
	c-2.6,0.9-5.1,1.7-7.7,1.7c-14.5,0-25.6-11.1-25.6-25.6c0-6.8,2.6-13.7,7.7-17.9c4.3-4.3,11.1-7.7,17.9-7.7S350.7,245.8,355,250.9z
	 M251.7,157.9c14.5,0,25.6,11.1,25.6,25.6c0,6.8-2.6,13.7-7.7,17.9c-4.3,4.3-11.1,7.7-17.9,7.7c-9.4,0-17.1-5.1-22.2-11.9
	c-2.6-4.3-3.4-8.5-3.4-13.7C226.1,169,237.2,157.9,251.7,157.9z"/>
<path class="st3" d="M448,486.4H55.5c-21.3,0-38.4-17.1-38.4-38.4c0-2.6,1.7-4.3,4.3-4.3s4.3,1.7,4.3,4.3
	c0,16.2,13.7,29.9,29.9,29.9h12.8v-38.4c0-2.6,1.7-4.3,4.3-4.3s4.3,1.7,4.3,4.3v38.4h59.7V328.5c0-2.6,1.7-4.3,4.3-4.3
	s4.3,1.7,4.3,4.3v149.3h59.7V260.3c0-2.6,1.7-4.3,4.3-4.3s4.3,1.7,4.3,4.3v217.6h59.7V260.3c0-2.6,1.7-4.3,4.3-4.3s4.3,1.7,4.3,4.3
	v217.6h59.7V328.5c0-2.6,1.7-4.3,4.3-4.3s4.3,1.7,4.3,4.3v149.3h59.7V243.2c0-2.6,1.7-4.3,4.3-4.3s4.3,1.7,4.3,4.3v234.7H448
	c16.2,0,29.9-13.7,29.9-29.9V162.1c-7.7,0.9-16.2-0.9-22.2-6L361,250.9c3.4,5.1,6,11.1,6,17.9c0,16.2-13.7,29.9-29.9,29.9
	s-29.9-13.7-29.9-29.9c0-6.8,2.6-12.8,6-17.9l-43.5-43.5c-5.1,3.4-11.1,6-17.9,6c-8.5,0-17.1-4.3-22.2-10.2L57.2,375.5
	c1.7,3.4,2.6,7.7,2.6,12.8c0,16.2-13.7,29.9-29.9,29.9S0,404.5,0,388.3c0-11.9,6.8-22.2,17.1-27.3V55.5c0-21.3,17.1-38.4,38.4-38.4
	H448c21.3,0,38.4,17.1,38.4,38.4v17.1c0,2.6-1.7,4.3-4.3,4.3s-4.3-1.7-4.3-4.3V55.5c0-16.2-13.7-29.9-29.9-29.9H55.5
	c-16.2,0-29.9,13.7-29.9,29.9v302.9c10.2-1.7,20.5,2.6,26.5,9.4l172.4-172.4c-1.7-3.4-2.6-7.7-2.6-12.8c0-16.2,13.7-29.9,29.9-29.9
	s29.9,13.7,29.9,29.9c0,6.8-2.6,12.8-6,17.9l43.5,43.5c5.1-3.4,11.1-6,17.9-6s12.8,2.6,17.9,6l94.7-94.7c-3.4-5.1-6-11.1-6-17.9
	c0-16.2,13.7-29.9,29.9-29.9s29.9,13.7,29.9,29.9c0,11.9-6.8,22.2-17.1,27.3V448C486.4,469.3,469.3,486.4,448,486.4z M29.9,366.9
	c-11.9,0-21.3,9.4-21.3,21.3s9.4,21.3,21.3,21.3s21.3-9.4,21.3-21.3S41.8,366.9,29.9,366.9z M337.1,247.5
	c-11.9,0-21.3,9.4-21.3,21.3s9.4,21.3,21.3,21.3s21.3-9.4,21.3-21.3S349,247.5,337.1,247.5z M251.7,162.1
	c-11.9,0-21.3,9.4-21.3,21.3c0,11.9,9.4,21.3,21.3,21.3c11.9,0,21.3-9.4,21.3-21.3C273.1,171.5,263.7,162.1,251.7,162.1z
	 M459.1,147.6c3.4,3.4,9.4,6,14.5,6c11.9,0,21.3-9.4,21.3-21.3c0-11.9-9.4-21.3-21.3-21.3c-11.9,0-21.3,9.4-21.3,21.3
	C452.3,138.2,454.8,143.4,459.1,147.6C458.2,146.8,458.2,146.8,459.1,147.6L459.1,147.6z"/>
</svg>
